<?xml version="1.0" encoding="UTF-8" standalone="no"?>
<!-- Created with Inkscape (http://www.inkscape.org/) -->

<svg
   width="128px"
   height="128px"
   viewBox="0 0 32 32"
   version="1.1"
   id="svg1"
   inkscape:version="1.4.4 (dcaf3e7d9e, 2026-05-05)"
   sodipodi:docname="com.fvtronics.Quire.svg"
   xmlns:inkscape="http://www.inkscape.org/namespaces/inkscape"
   xmlns:sodipodi="http://sodipodi.sourceforge.net/DTD/sodipodi-0.dtd"
   xmlns:xlink="http://www.w3.org/1999/xlink"
   xmlns="http://www.w3.org/2000/svg"
   xmlns:svg="http://www.w3.org/2000/svg">
  <sodipodi:namedview
     id="namedview1"
     pagecolor="#ffffff"
     bordercolor="#000000"
     borderopacity="0.25"
     inkscape:showpageshadow="2"
     inkscape:pageopacity="0.0"
     inkscape:pagecheckerboard="0"
     inkscape:deskcolor="#d1d1d1"
     inkscape:document-units="px"
     inkscape:zoom="1.8575145"
     inkscape:cx="117.09195"
     inkscape:cy="128.66656"
     inkscape:window-width="1536"
     inkscape:window-height="891"
     inkscape:window-x="0"
     inkscape:window-y="0"
     inkscape:window-maximized="1"
     inkscape:current-layer="layer1" />
  <defs
     id="defs1">
    <linearGradient
       id="backSheet"
       x1="227"
       y1="190"
       x2="510"
       y2="820"
       gradientUnits="userSpaceOnUse"
       gradientTransform="matrix(0.03983119,0,0,0.03823694,-4.2887503,-2.2962938)">
      <stop
         stop-color="#E3F2FF"
         id="stop9" />
      <stop
         offset="1"
         stop-color="#A8D0FF"
         id="stop10" />
    </linearGradient>
    <linearGradient
       id="frontPaper"
       x1="330"
       y1="128"
       x2="615"
       y2="790"
       gradientUnits="userSpaceOnUse">
      <stop
         stop-color="#FFFFFF"
         id="stop11" />
      <stop
         offset="0.58"
         stop-color="#FAFBFD"
         id="stop12" />
      <stop
         offset="1"
         stop-color="#EEF3F8"
         id="stop13" />
    </linearGradient>
    <filter
       id="foldShadow"
       x="-0.094382022"
       y="-0.09281768"
       width="1.188764"
       height="1.2353591">
      <feGaussianBlur
         in="SourceAlpha"
         stdDeviation="7"
         result="blur1"
         id="feGaussianBlur7" />
      <feOffset
         in="blur1"
         dx="0"
         dy="9"
         result="offset1"
         id="feOffset7" />
      <feFlood
         flood-color="#45576C"
         flood-opacity="0.22"
         result="flood1"
         id="feFlood7" />
      <feComposite
         in="flood1"
         in2="offset1"
         operator="in"
         result="shadow1"
         id="feComposite7" />
      <feMerge
         id="feMerge6">
        <feMergeNode
           in="shadow1"
           id="feMergeNode8" />
        <feMergeNode
           in="SourceGraphic"
           id="feMergeNode9" />
      </feMerge>
    </filter>
    <linearGradient
       id="mainFold"
       x1="610"
       y1="150"
       x2="742"
       y2="316"
       gradientUnits="userSpaceOnUse"
       gradientTransform="matrix(0.03922909,0,0,0.03764441,-3.9531973,-2.7536068)">
      <stop
         stop-color="#FFFFFF"
         id="stop14" />
      <stop
         offset="0.65"
         stop-color="#F4F7FB"
         id="stop15" />
      <stop
         offset="1"
         stop-color="#E4ECF6"
         id="stop16" />
    </linearGradient>
    <linearGradient
       inkscape:collect="always"
       xlink:href="#lineGray"
       id="linearGradient1"
       gradientUnits="userSpaceOnUse"
       x1="360"
       y1="392"
       x2="624"
       y2="420"
       gradientTransform="matrix(0.0398312,0,0,0.03823694,-4.2887523,-2.2962938)" />
    <linearGradient
       id="lineGray"
       x1="360"
       y1="392"
       x2="624"
       y2="420"
       gradientUnits="userSpaceOnUse">
      <stop
         stop-color="#CBD6E3"
         id="stop25" />
      <stop
         offset="1"
         stop-color="#B8C6D7"
         id="stop26" />
    </linearGradient>
    <linearGradient
       id="redFile"
       x1="646"
       y1="526"
       x2="812"
       y2="836"
       gradientUnits="userSpaceOnUse">
      <stop
         stop-color="#FFEAEA"
         id="stop20" />
      <stop
         offset="0.55"
         stop-color="#FFC1C1"
         id="stop21" />
      <stop
         offset="1"
         stop-color="#FF9D9D"
         id="stop19" />
    </linearGradient>
    <linearGradient
       id="smallFold"
       x1="764"
       y1="538"
       x2="828"
       y2="615"
       gradientUnits="userSpaceOnUse"
       gradientTransform="matrix(0.03804857,0,0,0.03474173,-2.8832993,-0.37201382)">
      <stop
         stop-color="#FFF7F7"
         id="stop22" />
      <stop
         offset="0.72"
         stop-color="#FFDCDC"
         id="stop23" />
      <stop
         offset="1"
         stop-color="#FFC0C0"
         id="stop24" />
    </linearGradient>
    <linearGradient
       inkscape:collect="always"
       xlink:href="#lineGray"
       id="linearGradient2"
       gradientUnits="userSpaceOnUse"
       gradientTransform="matrix(0.0398312,0,0,0.03823694,-4.2887523,-2.2962938)"
       x1="360"
       y1="392"
       x2="624"
       y2="420" />
  </defs>
  <g
     inkscape:label="Capa 1"
     inkscape:groupmode="layer"
     id="layer1"
     transform="matrix(0.948,0,0,0.948,0.68,0.57)">
    <path
       d="m 4.3944497,6.3070187 c 0,-0.675762 0.570661,-1.223582 1.274598,-1.223582 H 17.020936 c 0.703937,0 1.274598,0.54782 1.274598,1.223582 V 27.681467 c 0,0.67576 -0.570661,1.22358 -1.274598,1.22358 H 5.6690477 c -0.703937,0 -1.274598,-0.54782 -1.274598,-1.22358 z"
       fill="url(#backSheet)"
       stroke="#9fc9f8"
       stroke-width="0.156104"
       id="path26"
       style="display:inline;fill:url(#backSheet);enable-background:new" />
    <g
       id="g27"
       transform="matrix(0.03983119,0,0,0.03823694,-4.2887523,-2.8254598)"
       style="display:inline;enable-background:new">
      <path
         d="m 276,162 c 0,-17.673 14.327,-32 32,-32 h 284 l 178,179 v 439 c 0,17.673 -14.327,32 -32,32 H 308 c -17.673,0 -32,-14.327 -32,-32 z"
         fill="url(#frontPaper)"
         stroke="#dae4ef"
         stroke-width="3"
         id="path27"
         style="fill:url(#frontPaper)" />
    </g>
    <path
       d="m 209.2,-29.32103 v 145 c 0,19.882 16.118,36 36,36 h 142 z"
       fill="#cfd9e6"
       opacity="0.45"
       filter="url(#foldShadow)"
       id="path28"
       transform="matrix(0.03896308,0,0,0.03471612,11.125654,3.6332732)"
       style="display:inline;enable-background:new" />
    <path
       d="m 19.270425,2.1401632 v 5.4584445 c 0,0.74844 0.632293,1.355196 1.412246,1.355196 h 5.570535 z"
       fill="url(#mainFold)"
       stroke="#d7e1ec"
       stroke-width="0.115285"
       id="path29"
       style="display:inline;fill:url(#mainFold);enable-background:new" />
    <rect
       x="10.13014"
       y="12.845531"
       width="10.35611"
       height="1.0706342"
       rx="0.55763674"
       fill="url(#lineGray)"
       id="rect29"
       style="display:inline;fill:url(#linearGradient2);stroke-width:0.0390258;enable-background:new" />
    <rect
       x="10.13014"
       y="15.445643"
       width="10.35611"
       height="1.0706342"
       rx="0.55763674"
       fill="url(#lineGray)"
       id="rect30"
       style="display:inline;fill:url(#linearGradient1);stroke-width:0.0390258;enable-background:new" />
    <g
       id="g30"
       transform="matrix(0.03983119,0,0,0.03823694,-4.2887523,-2.2962938)"
       style="display:inline;enable-background:new">
      <path
         d="m 626,560 c 0,-15.464 12.536,-28 28,-28 h 105 l 73,74 v 202 c 0,15.464 -12.536,28 -28,28 H 654 c -15.464,0 -28,-12.536 -28,-28 z"
         fill="url(#redFile)"
         stroke="#e48181"
         stroke-width="3"
         id="path30"
         style="fill:url(#redFile)" />
    </g>
    <path
       d="m 25.995566,18.110588 v 1.77183 c 0,0.537249 0.47698,0.972769 1.06536,0.972769 h 1.71219 z"
       fill="url(#smallFold)"
       stroke="#e48181"
       stroke-width="0.114489"
       id="path31"
       style="display:inline;fill:url(#smallFold);enable-background:new" />
    <rect
       x="22.637136"
       y="22.634188"
       width="4.3017693"
       height="0.99416029"
       rx="0.51780552"
       fill="#e44949"
       opacity="0.76"
       id="rect31"
       style="display:inline;stroke-width:0.0390258;enable-background:new" />
    <rect
       x="22.637136"
       y="24.622507"
       width="4.3017693"
       height="0.99416029"
       rx="0.51780552"
       fill="#e44949"
       opacity="0.76"
       id="rect32"
       style="display:inline;stroke-width:0.0390258;enable-background:new" />
    <path
       d="m 11.913844,19.239328 c -0.202684,0 -0.367993,0.159246 -0.367993,0.354494 v 0.246485 c 0,0.18971 0.160997,0.37527 0.277432,0.43619 0.03737,0.0208 0.05175,0.0194 0.08194,0.0305 -0.04456,0.018 -0.07187,0.018 -0.123622,0.0554 -0.125061,0.0886 -0.235746,0.28249 -0.235746,0.45973 0,0.17725 0.09487,0.36419 0.211309,0.46251 0.06181,0.0526 0.104935,0.0609 0.159559,0.0845 -0.04887,0.0208 -0.08337,0.0235 -0.14231,0.0665 -0.123623,0.0928 -0.228558,0.28526 -0.228558,0.46251 0,0.17725 0.116435,0.38634 0.26162,0.4722 0.0086,0.006 0.01725,0.0111 0.02587,0.0152 l -0.229996,0.22156 c -0.306182,0.29495 -0.44418,0.66744 -0.422618,1.01086 0.02013,0.3448 0.183997,0.6536 0.422618,0.88347 0.240058,0.23125 0.560615,0.38773 0.918547,0.4085 0.356494,0.0208 0.743174,-0.11217 1.050794,-0.4085 l 1.285103,-1.23796 v 1.64784 h 0.735988 c 0.783424,0 1.448975,-0.62313 1.453287,-1.38197 l 0.01869,-2.86919 h -0.0014 c 0.0029,-0.0429 0.0029,-0.0845 0,-0.12601 -0.02156,-0.3448 -0.185436,-0.653603 -0.424057,-0.884855 -0.238621,-0.229867 -0.559178,-0.386343 -0.91711,-0.407115 -0.357931,-0.02077 -0.744612,0.112165 -1.050794,0.407115 l -1.842844,1.775245 c 0.0029,-0.018 0.0043,-0.0388 0.0043,-0.0582 0,-0.17725 -0.117873,-0.36557 -0.234309,-0.45004 -0.06756,-0.0471 -0.106373,-0.054 -0.158122,-0.0748 0.05462,-0.0208 0.09631,-0.0249 0.162435,-0.0748 0.12506,-0.0928 0.229996,-0.28664 0.229996,-0.46389 0,-0.17724 -0.09919,-0.365568 -0.219934,-0.461115 -0.122186,-0.09555 -0.235746,-0.126012 -0.316245,-0.149553 -0.01006,-0.0028 -0.0057,-0.0014 -0.01581,-0.0055 v -0.09278 c 0,-0.195248 -0.16531,-0.354494 -0.367994,-0.354494 z m 3.708687,0.708989 c 0.01869,0 0.03881,0 0.0575,0.0014 0.155248,0.0083 0.316245,0.08308 0.439868,0.20078 0.123623,0.11909 0.201246,0.27557 0.209871,0.42512 0.0086,0.14817 -0.03306,0.2991 -0.209871,0.46943 l -3.06901,2.95504 c -0.175373,0.17032 -0.332057,0.21048 -0.485867,0.20217 -0.155248,-0.008 -0.317682,-0.0831 -0.441305,-0.20217 -0.122186,-0.11909 -0.199809,-0.27418 -0.209872,-0.42235 -0.0086,-0.14955 0.0345,-0.30049 0.209872,-0.46943 l 3.06901,-2.95781 c 0.15381,-0.14817 0.293245,-0.196627 0.429805,-0.202166 z m 0.698613,1.90402 -0.01006,1.67277 c -0.0014,0.3268 -0.375182,0.67714 -0.717301,0.67714 v -1.64784 z m 0,0"
       id="path1"
       style="display:inline;fill:#666666;fill-opacity:1;stroke-width:0.361181;enable-background:new" />
    <path
       d="m 13.017826,23.493257 c 0,0.19664 -0.16531,0.3545 -0.367994,0.3545 -0.202684,0 -0.367994,-0.15786 -0.367994,-0.3545 0,-0.19524 0.16531,-0.35449 0.367994,-0.35449 0.202684,0 0.367994,0.15925 0.367994,0.35449 z m 0,0"
       id="path2"
       style="display:inline;fill:#666666;fill-opacity:1;stroke-width:0.361181;enable-background:new" />
    <path
       d="m 15.961775,20.657307 c 0,0.19663 -0.165309,0.35449 -0.367993,0.35449 -0.202684,0 -0.367994,-0.15786 -0.367994,-0.35449 0,-0.19525 0.16531,-0.3545 0.367994,-0.3545 0.202684,0 0.367993,0.15925 0.367993,0.3545 z m 0,0"
       id="path3"
       style="display:inline;fill:#666666;fill-opacity:1;stroke-width:0.361181;enable-background:new" />
  </g>
</svg>
